<svg xmlns="http://www.w3.org/2000/svg" viewBox="0 0 245 55" fill="none"><path fill="#000" d="M158.2 38c-5 0-7.7-4.1-7.7-9.3 0-5.1 2.6-9.1 7.7-9.1 5.3 0 7.8 4.1 7.8 9.1 0 5.3-2.7 9.4-7.8 9.4Zm-49.9-18.4c3 0 4.3 1.7 4.3 3.2 0 3.7-3.7 5.3-11.5 5.5 0-4.5 2.6-8.7 7.2-8.7ZM75.3 38c-4.9 0-6.9-4-6.9-9.4s2-9.1 6.9-9.1c4.8 0 7.1 3.9 7.1 9.1 0 5.5-2.4 9.4-7.1 9.4ZM34.5 14.2h-7.6L39.4 43c-2.4 5.3-3.7 6.6-5.3 6.6-1.8 0-3.4-1.4-4.6-2.6l-3.3 4.4c2.2 2.3 5.3 3.7 8.5 3.7 4 0 7-2.3 8.7-6.4l14.4-34.4h-7.3l-7.6 20.5-8.4-20.5ZM234 19.6c3.6 0 4.4 2.5 4.4 8.4v15.5h6.5V23.9c0-7-4.8-10-9.3-10-4 0-7.6 2.4-9.6 7a9.2 9.2 0 0 0-9-7c-3.8 0-7.5 2.3-9.5 6.7v-6.4H201v29.2h6.6V31c0-6.3 3.3-11.3 7.8-11.3 3.6 0 4.3 2.5 4.3 8.4v15.5h6.6V30.9c0-6.3 3.3-11.3 7.8-11.3ZM182 14.2h-3.3v29.2h6.5V32.2c0-7 3.1-11.8 7.8-11.8 1.2 0 2.2 0 3.3.5l1-7-2.3-.1c-4.6 0-7.9 3.1-9.8 7.2v-6.8H182Zm-23.8-.4c-8.6 0-14.4 6.6-14.4 14.9 0 8.6 5.9 15 14.4 15 8.7 0 14.7-6.6 14.7-15s-6.1-15-14.7-15ZM108.7 38c-3.4 0-6-1.8-7-5.3 8.7-.3 17.1-2.4 17.1-10 0-4.5-4.3-9-10.5-9-8.4 0-14 6.8-14 15 0 8.4 5.5 15 13.9 15 5.8 0 9.4-2.4 12.3-5.7l-3.1-4.3c-3.4 3.4-5.5 4.3-8.7 4.3ZM76.6 13.8c-3.4 0-6.7 1.9-8 5v-4.6h-6.5V55h6.5V40.3c1.4 2.1 4.6 3.5 7.4 3.5 8.7 0 13.3-6.4 13.3-15 0-8.7-4.6-15-12.7-15ZM30.8 2.6H0v6.3h12v34.5H19V9h11.9V2.6Zm97 11.6h-4v5.9h4v23.3h6.5V20.1h6.3v-5.9h-6.3V9.7c0-3 1.2-4 4-4 1 0 1.8.3 3 .7L143 1c-1.2-.7-3.6-1-5.2-1-6.2 0-10 3.7-10 10.2v4Z"></path></svg>