<svg xmlns="http://www.w3.org/2000/svg" xmlns:xlink="http://www.w3.org/1999/xlink" viewBox="0 0 84 25" version="1.1">
<defs>
<clipPath id="clip1">
  <path d="M 0 4 L 83.003906 4 L 83.003906 24.148438 L 0 24.148438 Z M 0 4"></path>
</clipPath>
</defs>
<g id="surface1">
<g clip-path="url(#clip1)" clip-rule="nonzero">
<path style="stroke:none;fill-rule:nonzero;fill:rgb(0%,0%,0%);fill-opacity:1;" d="M 0.0078125 4.488281 L 2.902344 4.488281 L 2.902344 10.914062 L 9.007812 10.914062 L 9.007812 4.488281 L 11.90625 4.488281 L 11.90625 20.257812 L 9.007812 20.257812 L 9.007812 13.699219 L 2.902344 13.699219 L 2.902344 20.257812 L 0.0078125 20.257812 Z M 21.074219 15.121094 C 21.074219 16.441406 19.996094 17.515625 18.675781 17.515625 C 17.355469 17.515625 16.28125 16.441406 16.28125 15.121094 L 16.28125 8.332031 L 13.535156 8.332031 L 13.535156 15.121094 C 13.535156 17.953125 15.84375 20.257812 18.675781 20.257812 C 21.511719 20.257812 23.816406 17.953125 23.816406 15.121094 L 23.816406 8.332031 L 21.074219 8.332031 Z M 31.480469 8.414062 C 30.117188 8.414062 29.167969 8.808594 28.25 9.707031 L 28.25 4.488281 L 25.496094 4.488281 L 25.496094 14.160156 C 25.496094 17.78125 28.117188 20.257812 31.058594 20.257812 C 34.332031 20.257812 37.199219 17.734375 37.199219 14.335938 C 37.199219 10.980469 34.554688 8.414062 31.480469 8.414062 Z M 31.546875 17.714844 C 29.683594 17.714844 28.257812 16.15625 28.257812 14.335938 C 28.257812 12.515625 29.683594 10.957031 31.546875 10.957031 C 33.128906 10.957031 34.558594 12.515625 34.558594 14.335938 C 34.558594 16.15625 33.128906 17.714844 31.546875 17.714844 Z M 41.824219 9.105469 C 41.824219 7.722656 42.746094 7.285156 43.753906 7.285156 C 44.566406 7.285156 45.644531 7.898438 46.34375 8.644531 L 48.144531 6.539062 C 47.246094 5.332031 45.421875 4.5 43.929688 4.5 C 40.945312 4.5 38.792969 6.230469 38.792969 9.105469 C 38.792969 14.4375 45.359375 12.746094 45.359375 15.730469 C 45.359375 16.652344 44.457031 17.464844 43.425781 17.464844 C 41.800781 17.464844 41.273438 16.671875 40.527344 15.839844 L 38.527344 17.902344 C 39.804688 19.457031 41.382812 20.25 43.273438 20.25 C 46.105469 20.25 48.386719 18.492188 48.386719 15.75 C 48.386719 9.828125 41.824219 11.671875 41.824219 9.105469 Z M 55.636719 8.257812 C 52.695312 8.257812 50.074219 10.734375 50.074219 14.355469 L 50.074219 24.050781 L 52.828125 24.050781 L 52.828125 18.808594 C 53.746094 19.707031 54.695312 20.101562 56.058594 20.101562 C 59.132812 20.101562 61.777344 17.535156 61.777344 14.179688 C 61.777344 10.78125 58.90625 8.257812 55.636719 8.257812 Z M 56.125 17.558594 C 54.261719 17.558594 52.832031 16 52.832031 14.179688 C 52.832031 12.359375 54.261719 10.800781 56.125 10.800781 C 57.707031 10.800781 59.136719 12.359375 59.136719 14.179688 C 59.136719 16 57.707031 17.558594 56.125 17.558594 Z M 82.042969 17.714844 C 80.417969 17.714844 79.957031 17.011719 79.957031 15.9375 L 79.957031 11.175781 L 82.484375 11.175781 L 82.484375 8.765625 L 79.957031 8.765625 L 79.957031 5.582031 L 77.171875 6.832031 L 77.171875 16.527344 C 77.171875 19.007812 78.882812 20.257812 81.230469 20.257812 C 81.582031 20.257812 82.066406 20.234375 82.332031 20.171875 L 83.011719 17.671875 C 82.703125 17.691406 82.351562 17.714844 82.042969 17.714844 Z M 82.042969 17.714844"></path>
</g>
<path style="stroke:none;fill-rule:nonzero;fill:rgb(0%,0%,0%);fill-opacity:1;" d="M 74.78125 11.316406 C 74.253906 10.410156 73.511719 9.683594 72.582031 9.136719 C 71.890625 8.730469 71.171875 8.476562 70.359375 8.367188 L 70.359375 5.484375 C 71.171875 5.140625 71.671875 4.378906 71.671875 3.488281 C 71.671875 2.28125 70.703125 1.300781 69.492188 1.300781 C 68.28125 1.300781 67.292969 2.28125 67.292969 3.488281 C 67.292969 4.378906 67.765625 5.140625 68.578125 5.484375 L 68.578125 8.367188 C 67.929688 8.460938 67.253906 8.664062 66.640625 8.972656 C 65.386719 8.019531 61.273438 4.898438 58.867188 3.074219 C 58.925781 2.871094 58.96875 2.65625 58.96875 2.433594 C 58.96875 1.09375 57.882812 0.0078125 56.539062 0.0078125 C 55.199219 0.0078125 54.113281 1.09375 54.113281 2.433594 C 54.113281 3.773438 55.199219 4.863281 56.542969 4.863281 C 57 4.863281 57.421875 4.726562 57.789062 4.507812 L 58.296875 4.894531 L 65.273438 9.914062 C 64.90625 10.253906 64.5625 10.636719 64.285156 11.070312 C 63.730469 11.949219 63.390625 12.917969 63.390625 13.976562 L 63.390625 14.195312 C 63.390625 14.9375 63.53125 15.636719 63.769531 16.292969 C 63.980469 16.867188 64.289062 17.390625 64.675781 17.863281 L 62.359375 20.183594 C 62.023438 20.058594 61.660156 20.03125 61.308594 20.109375 C 60.960938 20.183594 60.640625 20.359375 60.386719 20.613281 C 60.210938 20.789062 60.074219 20.996094 59.976562 21.222656 C 59.882812 21.449219 59.835938 21.695312 59.835938 21.941406 C 59.835938 22.441406 60.03125 22.914062 60.386719 23.265625 C 60.5625 23.441406 60.769531 23.578125 60.996094 23.675781 C 61.222656 23.769531 61.46875 23.816406 61.714844 23.816406 C 61.960938 23.816406 62.207031 23.769531 62.433594 23.675781 C 62.660156 23.578125 62.867188 23.441406 63.042969 23.265625 C 63.21875 23.09375 63.355469 22.886719 63.449219 22.660156 C 63.542969 22.429688 63.59375 22.1875 63.59375 21.941406 C 63.59375 21.746094 63.5625 21.558594 63.503906 21.378906 L 65.898438 18.988281 C 66.226562 19.214844 66.582031 19.402344 66.960938 19.566406 C 67.714844 19.890625 68.542969 20.089844 69.449219 20.089844 L 69.617188 20.089844 C 70.621094 20.089844 71.566406 19.855469 72.457031 19.375 C 73.394531 18.863281 74.128906 18.167969 74.683594 17.28125 C 75.242188 16.386719 75.546875 15.402344 75.546875 14.320312 L 75.546875 14.265625 C 75.546875 13.199219 75.300781 12.21875 74.78125 11.316406 Z M 71.859375 16.332031 C 71.207031 17.054688 70.460938 17.5 69.617188 17.5 L 69.476562 17.5 C 68.996094 17.5 68.523438 17.367188 68.0625 17.125 C 67.542969 16.855469 67.148438 16.476562 66.824219 15.996094 C 66.488281 15.523438 66.308594 15.007812 66.308594 14.460938 L 66.308594 14.292969 C 66.308594 13.753906 66.410156 13.246094 66.671875 12.765625 C 66.949219 12.238281 67.324219 11.828125 67.824219 11.503906 C 68.316406 11.179688 68.839844 11.019531 69.425781 11.019531 L 69.476562 11.019531 C 70.007812 11.019531 70.507812 11.125 70.980469 11.367188 C 71.464844 11.625 71.859375 11.976562 72.164062 12.441406 C 72.460938 12.902344 72.636719 13.402344 72.691406 13.949219 C 72.703125 14.0625 72.707031 14.175781 72.707031 14.289062 C 72.707031 15.027344 72.421875 15.710938 71.859375 16.332031 Z M 71.859375 16.332031"></path>
</g>
</svg>
